<svg width="204" height="297" viewBox="0 0 204 297" fill="none" xmlns="http://www.w3.org/2000/svg">
<path d="M142.065 206.294C144.115 207.961 146.165 209.432 148.215 211.098C162.661 222.668 177.597 233.554 194.005 241.998C198.889 244.551 203.969 246.713 209.147 248.582C212.469 249.763 215.987 250.553 219.506 250.756C229.772 251.463 235.948 244.143 233.232 234.164C232.068 229.859 229.925 225.748 228.174 221.637C227.688 220.365 227.006 219.288 226.814 217.723C227.693 218.214 228.572 218.705 229.451 219.195C236.481 223.513 243.61 227.928 251.425 230.879C255.236 232.354 259.144 233.536 263.151 234.424C265.497 235.016 268.039 235.022 270.386 234.831C277.33 234.162 282.131 229.577 283.417 222.637C284.109 219.021 283.726 215.305 282.952 211.783C281.596 205.522 279.36 199.748 276.635 194.071C270.211 180.368 262.319 167.347 254.134 154.618C245.558 141.497 236.688 128.473 228.014 115.449C227.429 114.666 227.04 113.883 226.945 112.612C228.215 113.103 229.29 113.594 230.56 114.086C239.742 118.017 249.122 121.362 258.994 122.85C263.588 123.545 268.281 123.75 272.877 123.663C277.081 123.574 281.192 122.019 284.522 119.288C289.321 115.485 291.484 110.21 291.693 104.148C291.899 99.0639 290.639 94.2701 288.889 89.5729C285.777 81.5483 281.295 74.3029 276.226 67.4474C262.284 48.7414 245.795 32.3765 227.934 17.5731C214.758 6.69102 200.895 -3.11699 185.854 -11.1676C180.19 -14.1133 174.329 -16.8638 168.172 -18.5394C163.775 -19.8201 159.377 -20.5141 154.683 -20.3288C142.752 -19.5726 134.524 -12.5504 131.859 -1.11616C130.871 3.37949 130.764 7.77928 131.243 12.3759C131.913 18.733 133.269 24.7982 135.505 30.7675C138.032 37.6175 140.853 44.3703 143.478 51.1228C143.867 52.1014 144.256 53.08 144.937 54.7437C143.472 54.2517 142.69 54.0544 141.81 53.7592C134.092 50.9068 126.472 47.9569 118.753 45.4956C111.034 43.0343 103.117 41.5504 94.903 41.7281C90.8939 41.8171 86.884 42.2973 83.1663 43.267C72.9914 45.9826 66.0349 52.5186 62.3952 62.5819C60.1325 68.9326 59.6293 75.4826 59.908 82.2299C60.1853 89.5639 61.6365 96.7049 63.3812 103.749C63.6721 104.825 63.9627 106.097 64.2528 107.564C62.9824 107.268 62.103 106.973 61.2237 106.677C51.7462 103.43 42.1648 103.018 32.3815 105.539C24.6526 107.576 17.2151 110.493 10.654 115.074C4.97476 118.777 1.93194 124.148 1.03725 130.893C0.0428623 138.518 1.00446 145.951 4.21602 152.9C6.25935 157.5 8.49824 162.101 11.2267 166.409C18.0481 176.984 25.0651 187.559 32.3766 197.646C47.6815 218.897 64.2599 239.076 82.8956 257.401C93.4331 267.788 104.656 277.493 117.253 285.44C122.623 288.874 128.092 292.015 134.15 293.788C138.254 294.971 142.554 296.153 146.758 296.26C159.37 296.972 167.405 289.167 167.334 276.554C167.343 272.838 166.96 268.926 165.99 265.404C164.05 258.36 161.914 251.315 159.092 244.758C154.034 232.818 148.29 221.17 142.84 209.62C142.451 208.641 141.964 207.76 141.575 206.782C141.771 206.587 141.869 206.489 142.065 206.294Z" fill="#068667"/>
</svg>
