<svg width="340" height="339" viewBox="0 0 340 339" fill="none" xmlns="http://www.w3.org/2000/svg">
<path d="M225.708 140.589C222.109 138.468 218.556 136.653 214.958 134.532C189.638 119.861 163.714 106.374 136.066 97.0524C127.828 94.2161 119.375 92.037 110.838 90.3394C105.366 89.2793 99.6785 88.8763 94.1283 89.3908C77.9133 90.7131 69.989 103.617 76.5948 118.576C79.4323 125.03 83.7533 130.951 87.4628 136.963C88.5235 138.837 89.8446 140.359 90.515 142.76C89.0249 142.201 87.5347 141.641 86.0446 141.082C74.0326 135.995 61.8448 130.777 48.9284 128.013C42.6232 126.608 36.2334 125.684 29.759 125.243C25.9525 124.872 21.9769 125.464 18.3526 126.317C7.65556 129.005 1.23399 137.309 0.864035 148.461C0.636794 154.279 2.11434 159.998 4.15795 165.32C7.75702 174.788 12.6183 183.285 18.2214 191.516C31.5036 211.419 46.9199 229.91 62.7266 247.874C79.236 266.359 96.1814 284.622 112.821 302.931C113.921 304.018 114.715 305.15 115.164 307.115C113.062 306.647 111.266 306.133 109.164 305.664C93.8794 301.69 78.4254 298.679 62.6398 298.686C55.2936 298.687 47.9083 299.475 40.7444 300.699C34.1921 301.832 28.1345 305.235 23.5736 310.291C16.9698 317.371 14.8363 326.13 15.9432 335.656C16.8223 343.653 19.9267 350.849 23.7729 357.778C30.5345 369.588 39.2545 379.855 48.8009 389.374C75.0192 415.321 104.666 437.005 136.089 455.925C159.261 469.821 183.253 481.877 208.67 490.906C218.222 494.172 228.035 497.086 238.055 498.25C245.232 499.212 252.273 499.257 259.567 497.857C278.04 493.854 289.243 480.931 290.706 462.425C291.187 455.163 290.314 448.26 288.479 441.187C285.927 431.407 282.374 422.246 277.467 413.443C271.896 403.331 265.889 393.441 260.188 383.506C259.349 382.068 258.509 380.63 257.052 378.19C259.459 378.613 260.728 378.736 262.173 378.99C274.913 381.624 287.524 384.434 300.173 386.457C312.823 388.479 325.55 388.927 338.349 386.707C344.595 385.62 350.751 383.921 356.333 381.526C371.598 374.875 380.928 363.012 384.238 346.419C386.274 335.956 385.512 325.597 383.481 315.115C381.313 303.715 377.356 292.895 372.963 282.295C372.254 280.682 371.499 278.762 370.698 276.537C372.754 276.699 374.199 276.953 375.644 277.207C391.228 280.042 406.304 278.421 421.002 272.167C432.604 267.155 443.541 260.836 452.715 252.123C460.718 244.991 464.205 235.874 464.009 225.118C463.76 212.964 460.499 201.57 453.836 191.466C449.554 184.758 444.966 178.095 439.682 172.005C426.517 157.086 413.046 142.212 399.231 128.172C370.28 98.5682 339.591 70.9427 306.124 46.701C287.195 32.9536 267.354 20.4361 245.783 10.99C236.576 6.89143 227.284 3.27441 217.393 1.93483C210.698 1.05696 203.696 0.22469 197.098 1.05161C177.213 2.92077 166.498 17.022 169.59 36.7245C170.456 42.5351 171.979 48.5603 174.329 53.8371C179.028 64.3908 184.032 74.899 189.993 84.4831C200.725 101.953 212.458 118.805 223.71 135.572C224.549 137.01 225.519 138.272 226.358 139.71C226.098 140.062 225.968 140.237 225.708 140.589Z" fill="#FFBF63"/>
</svg>
