<svg width="185" height="202" viewBox="0 0 185 202" fill="none" xmlns="http://www.w3.org/2000/svg">
<path d="M236.394 151.774C238.047 149.577 239.498 147.388 241.151 145.191C252.622 129.714 263.363 113.753 271.508 96.3566C273.973 91.1777 276.024 85.8096 277.766 80.3507C278.865 76.8494 279.549 73.159 279.623 69.4901C279.958 58.7852 272.104 52.6465 261.83 55.8605C257.397 57.239 253.204 59.6274 248.997 61.609C247.693 62.1643 246.599 62.9157 244.979 63.1766C245.455 62.2432 245.931 61.3099 246.407 60.3765C250.624 52.8952 254.939 45.3087 257.704 37.064C259.089 33.0434 260.166 28.9318 260.935 24.7293C261.459 22.2666 261.365 19.6221 261.076 17.1881C260.109 9.99166 255.153 5.17641 247.884 4.10899C244.096 3.52981 240.245 4.07306 236.612 5.01598C230.153 6.66967 224.234 9.22084 218.435 12.277C204.433 19.4925 191.196 28.2086 178.274 37.2191C164.961 46.6508 151.76 56.384 138.551 65.9139C137.759 66.5529 136.96 66.9884 135.641 67.1368C136.103 65.7966 136.572 64.6598 137.034 63.3196C140.765 53.615 143.879 43.7286 145.042 33.4017C145.585 28.5961 145.616 23.7067 145.346 18.9298C145.09 14.5597 143.312 10.3452 140.342 6.9875C136.199 2.14354 130.628 0.0996714 124.314 0.118791C119.018 0.102006 114.081 1.60015 109.263 3.60328C101.037 7.15242 93.6758 12.0968 86.7426 17.6371C67.8287 32.8676 51.4493 50.6565 36.7475 69.8119C25.9419 83.9416 16.2803 98.7437 8.49259 114.702C5.6494 120.709 3.01681 126.912 1.51381 133.381C0.353059 138.005 -0.197402 142.607 0.17831 147.482C1.42991 159.862 9.05474 168.148 21.052 170.474C25.7667 171.326 30.3474 171.266 35.11 170.589C41.6962 169.644 47.9521 167.997 54.074 165.439C61.1006 162.543 68.0147 159.346 74.936 156.352C75.9387 155.909 76.9415 155.466 78.6455 154.693C78.1908 156.237 78.0161 157.058 77.7432 157.984C75.0771 166.123 72.3057 174.165 70.0464 182.29C67.7872 190.415 66.5522 198.707 67.0572 207.244C67.306 211.411 67.9618 215.563 69.1153 219.392C72.3365 229.87 79.4061 236.851 90.0153 240.245C96.7092 242.351 103.542 242.619 110.549 242.066C118.167 241.492 125.538 239.704 132.797 237.615C133.905 237.27 135.217 236.918 136.731 236.559C136.473 237.892 136.2 238.818 135.927 239.745C132.919 249.729 132.864 259.711 135.867 269.789C138.287 277.749 141.611 285.372 146.632 292.018C150.705 297.781 156.411 300.736 163.461 301.404C171.431 302.141 179.125 300.851 186.228 297.24C190.933 294.935 195.631 292.427 200.006 289.421C210.74 281.914 221.466 274.203 231.674 266.205C253.182 249.457 273.524 231.426 291.859 211.328C302.253 199.963 311.91 187.91 319.686 174.499C323.048 168.779 326.102 162.968 327.71 156.597C328.78 152.282 329.843 147.764 329.79 143.387C330.039 130.24 321.608 122.187 308.49 122.752C304.625 122.888 300.571 123.439 296.945 124.585C289.694 126.878 282.449 129.374 275.739 132.564C263.516 138.291 251.624 144.719 239.823 150.839C238.82 151.281 237.923 151.822 236.92 152.265C236.71 152.069 236.604 151.971 236.394 151.774Z" fill="#FF7C44"/>
</svg>
