<svg width="236" height="191" viewBox="0 0 236 191" fill="none" xmlns="http://www.w3.org/2000/svg">
<path d="M236.992 152.177C238.646 149.978 240.096 147.786 241.75 145.587C253.221 130.095 263.961 114.119 272.106 96.7054C274.571 91.5213 276.622 86.1481 278.364 80.6837C279.463 77.179 280.147 73.485 280.221 69.8125C280.557 59.0971 272.702 52.9524 262.428 56.1696C257.995 57.5494 253.802 59.9402 249.595 61.9237C248.291 62.4795 247.197 63.2317 245.577 63.4928C246.053 62.5585 246.529 61.6243 247.006 60.69C251.223 53.2014 255.538 45.6074 258.302 37.3546C259.688 33.33 260.765 29.2144 261.533 25.0078C262.057 22.5427 261.964 19.8956 261.674 17.4593C260.707 10.2558 255.751 5.43578 248.483 4.36732C244.694 3.78757 240.843 4.33133 237.21 5.27519C230.751 6.9305 224.833 9.48416 219.034 12.5433C205.031 19.7659 191.794 28.4906 178.873 37.5099C165.559 46.9508 152.358 56.6936 139.149 66.2328C138.357 66.8724 137.558 67.3084 136.239 67.4569C136.701 66.1154 137.17 64.9775 137.632 63.636C141.363 53.9219 144.477 44.0257 145.64 33.6888C146.183 28.8784 146.214 23.9842 145.944 19.2026C145.688 14.8283 143.91 10.6097 140.94 7.24862C136.797 2.39994 131.226 0.354067 124.912 0.373205C119.616 0.356406 114.679 1.85603 109.861 3.86111C101.636 7.41372 94.274 12.363 87.3407 17.9087C68.4269 33.1541 52.0474 50.9604 37.3456 70.1346C26.5401 84.2782 16.8785 99.0948 9.09077 115.069C6.24757 121.081 3.61498 127.291 2.11197 133.766C0.95123 138.394 0.400772 143.001 0.776468 147.881C2.02807 160.273 9.6529 168.567 21.6502 170.895C26.3649 171.748 30.9456 171.688 35.7081 171.01C42.2943 170.064 48.5503 168.416 54.6722 165.855C61.6988 162.957 68.6128 159.756 75.5341 156.759C76.5369 156.316 77.5397 155.873 79.2437 155.099C78.7889 156.644 78.6142 157.466 78.3414 158.393C75.6753 166.541 72.9039 174.59 70.6446 182.723C68.3853 190.856 67.1504 199.156 67.6553 207.701C67.9042 211.872 68.5599 216.029 69.7134 219.861C72.9347 230.349 80.0043 237.337 90.6135 240.734C97.3074 242.843 104.14 243.111 111.148 242.558C118.765 241.983 126.136 240.193 133.395 238.102C134.503 237.757 135.815 237.405 137.33 237.045C137.071 238.38 136.798 239.307 136.525 240.234C133.517 250.228 133.462 260.22 136.465 270.308C138.885 278.276 142.209 285.906 147.23 292.558C151.303 298.327 157.009 301.286 164.059 301.954C172.029 302.692 179.723 301.401 186.826 297.786C191.531 295.479 196.229 292.968 200.604 289.959C211.338 282.445 222.065 274.726 232.272 266.72C253.78 249.956 274.123 231.908 292.457 211.79C302.851 200.413 312.508 188.349 320.284 174.924C323.646 169.199 326.7 163.382 328.308 157.005C329.378 152.686 330.441 148.163 330.388 143.781C330.637 130.622 322.206 122.561 309.088 123.127C305.223 123.263 301.169 123.814 297.543 124.961C290.292 127.256 283.047 129.755 276.337 132.948C264.114 138.681 252.222 145.115 240.421 151.241C239.419 151.684 238.521 152.225 237.518 152.669C237.308 152.472 237.202 152.374 236.992 152.177Z" fill="#FF7C44"/>
</svg>
