<svg width="235" height="257" viewBox="0 0 235 257" fill="none" xmlns="http://www.w3.org/2000/svg">
<path d="M142.065 227.294C144.115 228.961 146.165 230.432 148.215 232.098C162.661 243.668 177.597 254.554 194.005 262.998C198.889 265.551 203.969 267.713 209.147 269.582C212.469 270.763 215.987 271.553 219.506 271.756C229.772 272.463 235.948 265.143 233.232 255.164C232.068 250.859 229.925 246.748 228.174 242.637C227.688 241.365 227.006 240.288 226.814 238.723C227.693 239.214 228.572 239.705 229.451 240.195C236.481 244.513 243.61 248.928 251.425 251.879C255.236 253.354 259.144 254.536 263.151 255.424C265.497 256.016 268.039 256.022 270.386 255.831C277.33 255.162 282.131 250.577 283.417 243.637C284.109 240.021 283.726 236.305 282.952 232.783C281.596 226.522 279.36 220.748 276.635 215.071C270.211 201.368 262.319 188.347 254.134 175.618C245.558 162.497 236.688 149.473 228.014 136.449C227.429 135.666 227.04 134.883 226.945 133.612C228.215 134.103 229.29 134.594 230.56 135.086C239.742 139.017 249.122 142.362 258.994 143.85C263.588 144.545 268.281 144.75 272.877 144.663C277.081 144.574 281.192 143.019 284.522 140.288C289.321 136.485 291.484 131.21 291.693 125.148C291.899 120.064 290.639 115.27 288.889 110.573C285.777 102.548 281.295 95.3029 276.226 88.4474C262.284 69.7414 245.795 53.3765 227.934 38.5731C214.758 27.691 200.895 17.883 185.854 9.83243C180.19 6.88675 174.329 4.13619 168.172 2.46057C163.775 1.17988 159.377 0.485853 154.683 0.671185C142.752 1.42745 134.524 8.44957 131.859 19.8838C130.871 24.3795 130.764 28.7793 131.243 33.3759C131.913 39.733 133.269 45.7982 135.505 51.7675C138.032 58.6175 140.853 65.3703 143.478 72.1228C143.867 73.1014 144.256 74.08 144.937 75.7437C143.472 75.2517 142.69 75.0544 141.81 74.7592C134.092 71.9068 126.472 68.9569 118.753 66.4956C111.034 64.0343 103.117 62.5504 94.903 62.7281C90.8939 62.8171 86.884 63.2973 83.1663 64.267C72.9914 66.9826 66.0349 73.5186 62.3952 83.5819C60.1325 89.9326 59.6293 96.4826 59.908 103.23C60.1853 110.564 61.6365 117.705 63.3812 124.749C63.6721 125.825 63.9627 127.097 64.2528 128.564C62.9824 128.268 62.103 127.973 61.2237 127.677C51.7462 124.43 42.1648 124.018 32.3815 126.539C24.6526 128.576 17.2151 131.493 10.654 136.074C4.97476 139.777 1.93194 145.148 1.03725 151.893C0.0428623 159.518 1.00446 166.951 4.21602 173.9C6.25935 178.5 8.49824 183.101 11.2267 187.409C18.0481 197.984 25.0651 208.559 32.3766 218.646C47.6815 239.897 64.2599 260.076 82.8956 278.401C93.4331 288.788 104.656 298.493 117.253 306.44C122.623 309.874 128.092 313.015 134.15 314.788C138.254 315.971 142.554 317.153 146.758 317.26C159.37 317.972 167.405 310.167 167.334 297.554C167.343 293.838 166.96 289.926 165.99 286.404C164.05 279.36 161.914 272.315 159.092 265.758C154.034 253.818 148.29 242.17 142.84 230.62C142.451 229.641 141.964 228.76 141.575 227.782C141.771 227.587 141.869 227.489 142.065 227.294Z" fill="#068667"/>
</svg>
