<svg width="26" height="26" viewBox="0 0 26 26" fill="none" xmlns="http://www.w3.org/2000/svg">
<rect width="26" height="26" rx="4" fill="#068667"/>
<path d="M19.5 7.3125C19.045 7.3125 18.6388 7.49125 18.3462 7.78375L11.375 14.7713L7.65375 11.0338C7.36125 10.7413 6.955 10.5625 6.5 10.5625C5.60625 10.5625 4.875 11.2938 4.875 12.1875C4.875 12.6425 5.05375 13.0487 5.34625 13.3412L10.2213 18.2163C10.5138 18.5087 10.92 18.6875 11.375 18.6875C11.83 18.6875 12.2362 18.5087 12.5287 18.2163L20.6538 10.0912C20.9463 9.79875 21.125 9.3925 21.125 8.9375C21.125 8.04375 20.3938 7.3125 19.5 7.3125Z" fill="white"/>
</svg>
