<svg width="38" height="39" viewBox="0 0 38 39" fill="none" xmlns="http://www.w3.org/2000/svg">
<path d="M1.58545 19.2845C1.58545 23.1605 1.79445 26.1657 2.31695 28.5106C2.83312 30.8381 3.63587 32.4135 4.75528 33.5329C5.87312 34.6507 7.45012 35.4535 9.77603 35.9712C12.1194 36.4906 15.1277 36.7012 19.0021 36.7012C22.8781 36.7012 25.8833 36.4906 28.2282 35.9697C30.5557 35.4535 32.1311 34.6507 33.2505 33.5313C34.3684 32.4135 35.1711 30.8365 35.6889 28.5106C36.2082 26.1672 36.4188 23.1589 36.4188 19.2845C36.4188 15.4085 36.2082 12.4033 35.6873 10.0584C35.1711 7.7309 34.3684 6.15548 33.249 5.03606C32.1311 3.91823 30.5541 3.11548 28.2282 2.59773C25.8849 2.0784 22.8765 1.86781 19.0021 1.86781C15.1261 1.86781 12.121 2.07681 9.77603 2.59931C7.44853 3.11548 5.87312 3.91823 4.7537 5.03765C3.63587 6.15548 2.83312 7.73248 2.31537 10.0584C1.79603 12.4017 1.58545 15.4101 1.58545 19.2845Z" stroke="#0B0C0E" stroke-width="3.6903" stroke-linecap="round" stroke-linejoin="round"/>
<path d="M19.002 12.9515V19.2849M19.002 25.6182V19.2849M19.002 19.2849H25.3354H12.6687" stroke="#0B0C0E" stroke-width="3.6903" stroke-linecap="round" stroke-linejoin="round"/>
</svg>
