<svg width="24" height="22" viewBox="0 0 24 22" fill="none" xmlns="http://www.w3.org/2000/svg">
<path d="M2.12704 2.12706C3.42286 0.831009 5.16087 0.072952 6.99234 0.00499717C8.8238 -0.0629577 10.6132 0.564217 12.0015 1.76067C13.3886 0.566211 15.1756 -0.0602589 17.0049 0.00668536C18.8342 0.0736296 20.5706 0.829047 21.8667 2.1217C23.1627 3.41436 23.9227 5.14885 23.9944 6.97794C24.0662 8.80702 23.4444 10.5957 22.2535 11.9859L13.5799 20.6875C13.1814 21.0861 12.6469 21.3194 12.0836 21.3405C11.5204 21.3617 10.9699 21.1691 10.5427 20.8014L10.4198 20.6886L1.74725 11.9859C0.557054 10.5969 -0.0650259 8.80987 0.00538602 6.98206C0.0757979 5.15425 0.833513 3.42036 2.12704 2.12706ZM3.70651 3.70653C2.79306 4.62023 2.2665 5.85059 2.23614 7.14223C2.20577 8.43387 2.67392 9.6876 3.54342 10.6432L3.70651 10.8153L12.0004 19.1091L17.924 13.1845L13.9753 9.23578L12.7912 10.4198C12.4801 10.7311 12.1107 10.978 11.7042 11.1466C11.2976 11.3151 10.8618 11.4019 10.4217 11.402C9.53288 11.4022 8.68037 11.0493 8.05172 10.4209C7.42307 9.79259 7.06979 8.94025 7.06958 8.05141C7.06937 7.16258 7.42225 6.31007 8.0506 5.68142L10.3986 3.33232C9.46416 2.58657 8.29457 2.1982 7.09967 2.23689C5.90477 2.27558 4.76275 2.7388 3.87853 3.54344L3.70651 3.70653ZM13.1856 6.86546C13.395 6.65605 13.6791 6.53842 13.9753 6.53842C14.2715 6.53842 14.5556 6.65605 14.765 6.86546L19.5034 11.6039L20.2943 10.8153C21.223 9.88716 21.7518 8.6325 21.7674 7.3196C21.7831 6.0067 21.2844 4.73979 20.3781 3.78981C19.4717 2.83982 18.2296 2.28218 16.9175 2.23614C15.6053 2.1901 14.3272 2.65932 13.3565 3.54344L13.1856 3.70653L9.63119 7.26089C9.43758 7.45437 9.32175 7.71221 9.30569 7.98546C9.28962 8.25871 9.37445 8.52834 9.54406 8.74318L9.63119 8.84036C9.82468 9.03397 10.0825 9.1498 10.3558 9.16586C10.629 9.18192 10.8986 9.0971 11.1135 8.92749L11.2107 8.84036L13.1856 6.86546Z" fill="#007AFF"/>
</svg>
