<svg width="34" height="34" viewBox="0 0 34 34" fill="none" xmlns="http://www.w3.org/2000/svg">
<path d="M16.8548 0C21.4343 0 22.0057 0.0168547 23.8024 0.101129C25.5974 0.185403 26.8194 0.466879 27.8948 0.884879C29.0072 1.31299 29.9443 1.8928 30.8814 2.82824C31.7385 3.67081 32.4017 4.69001 32.8248 5.81492C33.2411 6.88857 33.5243 8.11223 33.6086 9.90727C33.6878 11.704 33.7097 12.2754 33.7097 16.8548C33.7097 21.4343 33.6928 22.0057 33.6086 23.8024C33.5243 25.5974 33.2411 26.8194 32.8248 27.8948C32.4029 29.0203 31.7396 30.0397 30.8814 30.8814C30.0386 31.7382 29.0195 32.4013 27.8948 32.8248C26.8211 33.2411 25.5974 33.5243 23.8024 33.6086C22.0057 33.6878 21.4343 33.7097 16.8548 33.7097C12.2754 33.7097 11.704 33.6928 9.90727 33.6086C8.11223 33.5243 6.89026 33.2411 5.81492 32.8248C4.68957 32.4025 3.67019 31.7393 2.82824 30.8814C1.97102 30.039 1.30782 29.0198 0.884879 27.8948C0.466879 26.8211 0.185403 25.5974 0.101129 23.8024C0.0219112 22.0057 0 21.4343 0 16.8548C0 12.2754 0.0168547 11.704 0.101129 9.90727C0.185403 8.11055 0.466879 6.89026 0.884879 5.81492C1.30665 4.68932 1.97 3.66984 2.82824 2.82824C3.67043 1.97072 4.68974 1.30748 5.81492 0.884879C6.89026 0.466879 8.11055 0.185403 9.90727 0.101129C11.704 0.0219112 12.2754 0 16.8548 0ZM16.8548 8.42742C14.6197 8.42742 12.4762 9.31531 10.8958 10.8958C9.31531 12.4762 8.42742 14.6197 8.42742 16.8548C8.42742 19.0899 9.31531 21.2335 10.8958 22.8139C12.4762 24.3944 14.6197 25.2823 16.8548 25.2823C19.0899 25.2823 21.2335 24.3944 22.8139 22.8139C24.3944 21.2335 25.2823 19.0899 25.2823 16.8548C25.2823 14.6197 24.3944 12.4762 22.8139 10.8958C21.2335 9.31531 19.0899 8.42742 16.8548 8.42742ZM27.8105 8.00605C27.8105 7.44728 27.5885 6.91139 27.1934 6.51628C26.7983 6.12117 26.2624 5.89919 25.7036 5.89919C25.1449 5.89919 24.609 6.12117 24.2139 6.51628C23.8187 6.91139 23.5968 7.44728 23.5968 8.00605C23.5968 8.56482 23.8187 9.10071 24.2139 9.49582C24.609 9.89093 25.1449 10.1129 25.7036 10.1129C26.2624 10.1129 26.7983 9.89093 27.1934 9.49582C27.5885 9.10071 27.8105 8.56482 27.8105 8.00605ZM16.8548 11.7984C18.1959 11.7984 19.482 12.3311 20.4303 13.2794C21.3786 14.2277 21.9113 15.5138 21.9113 16.8548C21.9113 18.1959 21.3786 19.482 20.4303 20.4303C19.482 21.3786 18.1959 21.9113 16.8548 21.9113C15.5138 21.9113 14.2277 21.3786 13.2794 20.4303C12.3311 19.482 11.7984 18.1959 11.7984 16.8548C11.7984 15.5138 12.3311 14.2277 13.2794 13.2794C14.2277 12.3311 15.5138 11.7984 16.8548 11.7984Z" fill="#068667"/>
</svg>
