<svg width="102" height="31" viewBox="0 0 102 31" fill="none" xmlns="http://www.w3.org/2000/svg">
<path fill-rule="evenodd" clip-rule="evenodd" d="M25.2019 7.56054C25.2019 11.7361 21.8169 15.1211 17.6414 15.1211C13.4658 15.1211 10.0808 11.7361 10.0808 7.56054C10.0808 3.38497 13.4658 0 17.6414 0C21.8169 0 25.2019 3.38497 25.2019 7.56054ZM0.0549527 14.5716C8.29197 14.0164 15.4708 20.1834 16.1395 28.4379C16.2088 29.2932 16.2054 30.1377 16.1347 30.9653C7.89766 31.5205 0.718831 25.3535 0.0501708 17.099C-0.0191187 16.2437 -0.0158056 15.3992 0.0549527 14.5716ZM21.4642 30.6763C29.7186 30.0076 35.8856 22.8288 35.3304 14.5918C34.5029 14.5211 33.6584 14.5178 32.803 14.5871C24.5486 15.2557 18.3816 22.4345 18.9368 30.6715C19.7643 30.7423 20.6088 30.7456 21.4642 30.6763Z" fill="#068667"/>
<path d="M45.4 12.9L47.82 27H54.46L56.28 13.7H57.08L58.9 27H65.54L67.96 12.9H64.86L62.62 26.2H61.82L60.08 12.9H53.28L51.54 26.2H50.74L48.5 12.9H45.4ZM68.1633 21.82C68.1633 24.68 69.9433 27.2 73.8233 27.2C77.3233 27.2 78.9833 24.9 79.1833 23.44H75.9833C75.7833 24.2 74.9433 24.6 73.8233 24.6C72.0033 24.6 71.1633 23.78 71.1633 22.62H78.8233V21.62C78.8233 18.56 76.6233 16.7 73.4833 16.7C70.3433 16.7 68.1633 18.62 68.1633 21.82ZM71.1633 20.82C71.1633 20.06 71.7033 19.3 73.4833 19.3C75.2633 19.3 75.8233 20.06 75.8233 20.82H71.1633ZM79.975 27H88.775V24.2H85.975V13.84C85.975 12.72 85.355 12.12 84.235 12.16L80.375 12.3V15.1L82.775 14.98V24.2H79.975V27ZM89.7844 24.24C89.7844 25.28 90.3244 27.2 93.4644 27.2C96.2844 27.2 97.2644 25.78 97.6444 24.1H98.4444L97.9444 25.3V25.5C97.9444 26.46 98.4844 27 99.4444 27H101.664V24.2H100.204V21.36C100.204 18.04 97.7644 16.7 94.9844 16.7C92.1644 16.7 89.9844 18.2 89.9844 20.76H92.9844C92.9844 19.84 93.7044 19.3 94.9844 19.3C96.3644 19.3 97.0044 19.8 97.0044 20.62L93.8244 21.06C90.8244 21.48 89.7844 22.5 89.7844 24.24ZM92.9844 23.64C92.9844 23.06 93.4644 22.92 94.4244 22.78L97.0044 22.42C97.0044 23.66 95.8444 24.4 94.0844 24.4C93.5444 24.4 92.9844 24.22 92.9844 23.64Z" fill="#374151"/>
</svg>
