<svg width="38" height="38" viewBox="0 0 38 38" fill="none" xmlns="http://www.w3.org/2000/svg">
<path d="M12.6687 18.9994H25.3354" stroke="#0B0C0E" stroke-width="3.6903" stroke-linecap="round" stroke-linejoin="round"/>
<path d="M1.58545 18.9996C1.58545 22.8756 1.79445 25.8808 2.31695 28.2257C2.83312 30.5532 3.63587 32.1287 4.75528 33.2481C5.87312 34.3659 7.45012 35.1686 9.77603 35.6864C12.1194 36.2057 15.1277 36.4163 19.0021 36.4163C22.8781 36.4163 25.8833 36.2057 28.2282 35.6848C30.5557 35.1687 32.1311 34.3659 33.2505 33.2465C34.3684 32.1286 35.1711 30.5516 35.6889 28.2257C36.2082 25.8824 36.4188 22.8741 36.4188 18.9996C36.4188 15.1236 36.2082 12.1185 35.6873 9.77356C35.1711 7.44606 34.3684 5.87064 33.249 4.75123C32.1311 3.63339 30.5541 2.83064 28.2282 2.31289C25.8849 1.79356 22.8765 1.58298 19.0021 1.58298C15.1261 1.58298 12.121 1.79198 9.77603 2.31448C7.44853 2.83064 5.87312 3.63339 4.7537 4.75281C3.63587 5.87064 2.83312 7.44764 2.31537 9.77356C1.79603 12.1169 1.58545 15.1252 1.58545 18.9996Z" stroke="#0B0C0E" stroke-width="3.6903" stroke-linecap="round" stroke-linejoin="round"/>
</svg>
