<svg width="35" height="28" viewBox="0 0 35 28" fill="none" xmlns="http://www.w3.org/2000/svg">
<path d="M34.3552 3.31611C33.0684 3.88528 31.7039 4.25909 30.3067 4.42515C31.7794 3.54438 32.8816 2.1582 33.408 0.524944C32.0259 1.34746 30.5106 1.9239 28.9313 2.23571C27.8705 1.10067 26.4644 0.347906 24.9316 0.0944457C23.3988 -0.159015 21.8252 0.10103 20.4555 0.834151C19.0857 1.56727 17.9966 2.73239 17.3573 4.14839C16.718 5.56437 16.5645 7.1519 16.9206 8.66415C14.1178 8.52367 11.3759 7.79532 8.87287 6.52639C6.36985 5.25745 4.16167 3.47631 2.3917 1.29858C1.76519 2.37468 1.43596 3.59796 1.43772 4.84315C1.43772 7.28711 2.6816 9.44621 4.57272 10.7103C3.45357 10.6751 2.35906 10.3729 1.38041 9.82882V9.91646C1.38075 11.5441 1.94399 13.1216 2.97462 14.3814C4.00526 15.6412 5.43987 16.5058 7.03521 16.8286C5.9963 17.1102 4.90696 17.1517 3.84965 16.95C4.29945 18.351 5.17613 19.5763 6.35696 20.4543C7.53778 21.3323 8.96362 21.819 10.4348 21.8463C8.97264 22.9947 7.29844 23.8436 5.50796 24.3445C3.71748 24.8454 1.84582 24.9885 0 24.7656C3.22214 26.8378 6.97301 27.9379 10.804 27.9343C23.7704 27.9343 30.8612 17.1927 30.8612 7.87703C30.8612 7.57364 30.8528 7.26688 30.8393 6.96686C32.2195 5.96934 33.4107 4.73363 34.3569 3.31779L34.3552 3.31611Z" fill="#068667"/>
</svg>
