<svg width="34" height="27" viewBox="0 0 34 27" fill="none" xmlns="http://www.w3.org/2000/svg">
<path d="M32.9394 4.21034C33.7097 7.21387 33.7097 13.4839 33.7097 13.4839C33.7097 13.4839 33.7097 19.7539 32.9394 22.7574C32.5113 24.4176 31.259 25.7239 29.6729 26.1655C26.7925 26.9677 16.8548 26.9677 16.8548 26.9677C16.8548 26.9677 6.92228 26.9677 4.03673 26.1655C2.44395 25.7171 1.19332 24.4125 0.770266 22.7574C5.02313e-08 19.7539 0 13.4839 0 13.4839C0 13.4839 5.02313e-08 7.21387 0.770266 4.21034C1.19838 2.55014 2.45069 1.24389 4.03673 0.80229C6.92228 -3.01388e-07 16.8548 0 16.8548 0C16.8548 0 26.7925 -3.01388e-07 29.6729 0.80229C31.2657 1.25063 32.5164 2.55519 32.9394 4.21034ZM13.4839 19.3831L23.5968 13.4839L13.4839 7.58468V19.3831Z" fill="#068667"/>
</svg>
