<svg width="21" height="21" viewBox="0 0 21 21" fill="none" xmlns="http://www.w3.org/2000/svg">
<path d="M1.78564 16.0464C0.091146 17.7409 0 20.8295 0 20.8295C0 20.8295 3.08654 20.7383 4.7831 19.0439C6.47966 17.3494 7.1819 15.3048 6.3533 14.4783C5.5247 13.6497 3.48012 14.3519 1.78564 16.0464Z" fill="url(#paint0_linear_44_215)"/>
<path opacity="0.2" d="M5.38591 14.5442C5.68213 14.5442 5.90793 14.6208 6.05915 14.77C6.62881 15.3396 6.12336 17.1149 4.48895 18.7514C3.30819 19.9322 1.34233 20.2802 0.451587 20.3796C0.55102 19.4889 0.899032 17.523 2.07772 16.3422C3.1694 15.2485 4.46823 14.5442 5.38591 14.5442ZM5.38591 14.1299C4.38951 14.1299 2.99746 14.8342 1.78564 16.0481C0.091146 17.7426 0 20.8312 0 20.8312C0 20.8312 3.08654 20.74 4.7831 19.0456C6.47966 17.3511 7.1819 15.3065 6.3533 14.48C6.11715 14.2397 5.78364 14.1299 5.38591 14.1299Z" fill="#424242"/>
<path d="M2.29939 16.6428C1.23256 17.7096 1.17456 19.6527 1.17456 19.6527C1.17456 19.6527 3.11763 19.5947 4.18445 18.5279C5.25128 17.4611 5.69458 16.1726 5.17256 15.6526C4.65054 15.1327 3.36828 15.5739 2.29939 16.6428Z" fill="url(#paint1_linear_44_215)"/>
<path d="M4.48686 16.6615C5.5019 17.7449 6.83387 17.631 6.94366 17.4528L7.8717 15.9448C7.92763 15.8536 7.87584 15.7086 7.83648 15.6713L5.33203 13.1669C5.29267 13.1275 5.15388 13.082 5.06274 13.1379L3.55468 14.0659C3.37861 14.1757 3.17974 15.2633 4.48686 16.6615Z" fill="#546E7A"/>
<path d="M11.3063 19.4165C11.0991 19.5843 10.8215 19.547 10.7863 19.2984C10.689 18.6107 10.7532 17.229 9.88728 16.3631C9.04211 15.5179 7.6687 15.3937 7.6687 15.3937L12.8392 12.8457C12.8392 12.8457 13.8128 14.3475 13.2763 16.4853C12.8288 18.2523 12.0644 18.7971 11.3063 19.4165Z" fill="#0288D1"/>
<path opacity="0.2" d="M12.5471 13.6805C12.5844 13.782 12.6237 13.898 12.6589 14.0265C12.7998 14.5402 12.9179 15.3584 12.6714 16.332C12.3586 17.5791 11.8904 18.1135 11.3415 18.5817C11.271 17.7904 11.1177 16.7132 10.3244 15.9219C10.0344 15.6319 9.69463 15.4123 9.36112 15.2486L12.5471 13.6805ZM12.8371 12.8457L7.66663 15.3937C7.66663 15.3937 9.0421 15.52 9.88521 16.3631C10.7511 17.229 10.6869 18.6107 10.7842 19.2984C10.805 19.4455 10.9127 19.5201 11.039 19.5201C11.126 19.5201 11.2213 19.4849 11.3042 19.4165C12.0624 18.7971 12.8267 18.2523 13.2721 16.4853C13.8128 14.3455 12.8371 12.8457 12.8371 12.8457Z" fill="#424242"/>
<path d="M1.47491 9.88147C1.27191 10.0555 1.34441 10.3662 1.59299 10.4014C2.28073 10.4988 3.66242 10.4346 4.52831 11.3004C5.37348 12.1456 5.54956 13.3429 5.54956 13.3429L8.04779 8.0544C8.04779 8.0544 6.72617 7.43502 4.80382 7.93425C3.47806 8.2802 2.16265 9.28902 1.47491 9.88147Z" fill="#0288D1"/>
<path opacity="0.2" d="M6.2953 8.3612C6.64124 8.3612 6.93954 8.39848 7.17569 8.44406L5.62206 11.7377C5.45634 11.4415 5.24298 11.137 4.96747 10.8636C4.23209 10.1282 3.25434 9.94382 2.48374 9.86511C3.15283 9.35552 4.06222 8.77135 4.95711 8.53727C5.40456 8.4192 5.85407 8.3612 6.2953 8.3612ZM6.2953 7.73975C5.85822 7.73975 5.35484 7.79153 4.80382 7.93447C3.47806 8.28041 2.16473 9.28923 1.47699 9.88168C1.27398 10.0557 1.34648 10.3664 1.59506 10.4016C2.2828 10.499 3.66449 10.4348 4.53038 11.3007C5.37556 12.1458 5.55163 13.3432 5.55163 13.3432L8.0478 8.05461C8.0478 8.05461 7.37663 7.73975 6.2953 7.73975Z" fill="#424242"/>
<path opacity="0.2" d="M5.12073 13.8338L7.17566 15.8887L6.52728 16.9431C6.50657 16.9452 6.48378 16.9452 6.45892 16.9452C6.25798 16.9452 5.55782 16.8934 4.94051 16.2347C4.15955 15.3999 4.03733 14.7473 4.04769 14.4925L5.12073 13.8338ZM5.16423 13.1108C5.12902 13.1108 5.0938 13.1191 5.06273 13.1357L3.55467 14.0637C3.37652 14.1735 3.17766 15.2611 4.48478 16.6593C5.14973 17.3699 5.9514 17.5666 6.45685 17.5666C6.722 17.5666 6.90429 17.5128 6.94158 17.4506L7.86961 15.9426C7.92555 15.8514 7.87376 15.7064 7.8344 15.6691L5.33202 13.1668C5.30717 13.1419 5.23673 13.1108 5.16423 13.1108Z" fill="#424242"/>
<path d="M14.6083 1.14795C15.4472 1.53325 16.5782 2.19613 17.6575 3.27538C18.0387 3.65654 18.3639 4.04598 18.6456 4.42714C19.1904 5.16252 19.5633 5.86476 19.8077 6.41371C19.2629 7.84512 18.2355 9.51061 17.2308 10.5153C13.1271 14.6189 8.59468 16.9618 6.24974 15.3025C6.11302 15.2052 5.97837 15.1161 5.85615 15.0063C3.84472 13.1979 6.14823 8.0212 10.3327 3.83676C11.3829 2.78651 13.1333 1.71347 14.6083 1.14795Z" fill="url(#paint2_radial_44_215)"/>
<path d="M13.5166 8.93483C14.5348 8.93483 15.3602 8.10941 15.3602 7.0912C15.3602 6.07298 14.5348 5.24756 13.5166 5.24756C12.4983 5.24756 11.6729 6.07298 11.6729 7.0912C11.6729 8.10941 12.4983 8.93483 13.5166 8.93483Z" fill="#455A64"/>
<path opacity="0.2" d="M13.5165 5.66186C13.8977 5.66186 14.2581 5.81101 14.5274 6.0803C14.7967 6.3496 14.9459 6.71004 14.9459 7.0912C14.9459 7.47235 14.7967 7.83279 14.5274 8.10209C14.2581 8.37139 13.8977 8.52053 13.5165 8.52053C13.1354 8.52053 12.7749 8.37139 12.5057 8.10209C11.9484 7.54486 11.9484 6.63754 12.5057 6.0803C12.7749 5.81101 13.1333 5.66186 13.5165 5.66186ZM13.5165 5.24756C13.0442 5.24756 12.5719 5.42778 12.2115 5.78822C11.4906 6.5091 11.4906 7.67536 12.2115 8.39624C12.5719 8.75668 13.0442 8.93691 13.5165 8.93691C13.9888 8.93691 14.4612 8.75668 14.8216 8.39624C15.5425 7.67536 15.5425 6.5091 14.8216 5.78822C14.4612 5.42778 13.9888 5.24756 13.5165 5.24756Z" fill="#424242"/>
<path d="M9.71326 12.4625C10.45 12.4625 11.0473 11.8653 11.0473 11.1285C11.0473 10.3917 10.45 9.79443 9.71326 9.79443C8.97648 9.79443 8.37921 10.3917 8.37921 11.1285C8.37921 11.8653 8.97648 12.4625 9.71326 12.4625Z" fill="#455A64"/>
<path d="M14.6082 1.148C14.225 3.03928 17.5643 6.74313 19.8077 6.41376C20.5058 4.60948 20.7917 3.38522 20.9822 1.2785C21.0796 0.211679 20.7668 -0.0928323 19.7787 0.0231719C17.1582 0.329754 16.1225 0.528618 14.6082 1.148Z" fill="#E53935"/>
<path opacity="0.2" d="M20.1329 0.621939C20.2572 0.621939 20.3194 0.63644 20.3422 0.644726C20.3587 0.682013 20.4002 0.827018 20.365 1.22268C20.1806 3.26311 19.9154 4.42315 19.2298 6.19221C18.7036 7.56976 17.701 9.16689 16.7916 10.0763C13.6201 13.2477 10.2892 15.2198 8.09752 15.2198C7.50714 15.2198 7.00584 15.0769 6.60811 14.7952L6.53975 14.7475C6.4341 14.675 6.34503 14.6108 6.27045 14.5445C5.93487 14.2421 5.75672 13.7801 5.74015 13.1711C5.68214 10.9546 7.7495 7.29632 10.7698 4.27607C11.7164 3.32939 13.3861 2.28121 14.8278 1.73019L14.8403 1.72398C16.3048 1.12531 17.324 0.936808 19.8471 0.640583C19.9569 0.628154 20.0522 0.621939 20.1329 0.621939ZM20.1329 0.000488281C20.0252 0.000488281 19.9092 0.00877442 19.7787 0.0232749C17.1583 0.329857 16.1225 0.528722 14.6083 1.1481C13.1333 1.71155 11.3829 2.78459 10.3327 3.83484C6.14823 8.01928 3.84472 13.196 5.85615 15.0044C5.9763 15.1121 6.11095 15.2032 6.24974 15.3006C6.76761 15.6673 7.39321 15.8392 8.09752 15.8392C10.5792 15.8392 14.0344 13.7118 17.2328 10.5154C18.2375 9.51076 19.265 7.84527 19.8098 6.41386C20.5079 4.60958 20.7938 3.38532 20.9843 1.27861C21.0651 0.352644 20.8414 0.000488281 20.1329 0.000488281Z" fill="#424242"/>
<path opacity="0.2" d="M9.71329 10.2087C9.9598 10.2087 10.1897 10.304 10.3637 10.478C10.5378 10.652 10.633 10.882 10.633 11.1285C10.633 11.375 10.5378 11.6049 10.3637 11.7789C10.1897 11.9529 9.9598 12.0482 9.71329 12.0482C9.46678 12.0482 9.23685 11.9529 9.06284 11.7789C8.88883 11.6049 8.79355 11.375 8.79355 11.1285C8.79355 10.882 8.88883 10.652 9.06284 10.478C9.23892 10.304 9.46886 10.2087 9.71329 10.2087ZM9.71329 9.79443C9.37149 9.79443 9.03177 9.92494 8.77076 10.1859C8.25081 10.7059 8.25081 11.5511 8.77076 12.071C9.03177 12.332 9.37149 12.4625 9.71329 12.4625C10.0551 12.4625 10.3948 12.332 10.6558 12.071C11.1758 11.5511 11.1758 10.7059 10.6558 10.1859C10.3969 9.92494 10.0551 9.79443 9.71329 9.79443Z" fill="#424242"/>
<defs>
<linearGradient id="paint0_linear_44_215" x1="6.698" y1="17.4795" x2="-0.00207146" y2="17.4795" gradientUnits="userSpaceOnUse">
<stop stop-color="#FF6D00"/>
<stop offset="0.2487" stop-color="#FF9B00"/>
<stop offset="0.5135" stop-color="#FFC600"/>
<stop offset="0.721" stop-color="#FFE000"/>
<stop offset="0.8439" stop-color="#FFEA00"/>
</linearGradient>
<linearGradient id="paint1_linear_44_215" x1="4.42578" y1="16.3665" x2="0.957054" y2="19.9406" gradientUnits="userSpaceOnUse">
<stop offset="0.0044475" stop-color="#C62828"/>
<stop offset="0.2711" stop-color="#D75327"/>
<stop offset="0.5983" stop-color="#E98126"/>
<stop offset="0.8504" stop-color="#F59D25"/>
<stop offset="0.9953" stop-color="#F9A825"/>
</linearGradient>
<radialGradient id="paint2_radial_44_215" cx="0" cy="0" r="1" gradientUnits="userSpaceOnUse" gradientTransform="translate(14.1712 4.05012) rotate(180) scale(7.55539)">
<stop offset="0.0112" stop-color="#F5F5F5"/>
<stop offset="0.9995" stop-color="#BDBDBD"/>
</radialGradient>
</defs>
</svg>
